<mxfile host="app.diagrams.net" modified="2023-06-08T21:27:58.243Z" agent="Mozilla/5.0 (Windows NT 10.0; Win64; x64) AppleWebKit/537.36 (KHTML, like Gecko) Chrome/114.0.0.0 Safari/537.36" etag="lDGFFLTc5O_sS_QUKjOx" version="21.3.7" type="device">
  <diagram name="Page-1" id="2YBvvXClWsGukQMizWep">
    <mxGraphModel dx="1780" dy="643" grid="1" gridSize="10" guides="1" tooltips="1" connect="1" arrows="1" fold="1" page="1" pageScale="1" pageWidth="850" pageHeight="1100" math="0" shadow="0">
      <root>
        <mxCell id="0" />
        <mxCell id="1" parent="0" />
        <mxCell id="ZxvYhQc5vHyB1z8I4x-5-1" value="GraduationCallDAO" style="shape=umlLifeline;perimeter=lifelinePerimeter;whiteSpace=wrap;html=1;container=0;dropTarget=0;collapsible=0;recursiveResize=0;outlineConnect=0;portConstraint=eastwest;newEdgeStyle={&quot;edgeStyle&quot;:&quot;elbowEdgeStyle&quot;,&quot;elbow&quot;:&quot;vertical&quot;,&quot;curved&quot;:0,&quot;rounded&quot;:0};fillColor=#1ba1e2;fontColor=#ffffff;strokeColor=#006EAF;" vertex="1" parent="1">
          <mxGeometry x="1650.5" y="1170" width="120" height="750" as="geometry" />
        </mxCell>
        <mxCell id="ZxvYhQc5vHyB1z8I4x-5-2" value="Response" style="shape=umlLifeline;perimeter=lifelinePerimeter;whiteSpace=wrap;html=1;container=0;dropTarget=0;collapsible=0;recursiveResize=0;outlineConnect=0;portConstraint=eastwest;newEdgeStyle={&quot;edgeStyle&quot;:&quot;elbowEdgeStyle&quot;,&quot;elbow&quot;:&quot;vertical&quot;,&quot;curved&quot;:0,&quot;rounded&quot;:0};fillColor=#1ba1e2;fontColor=#ffffff;strokeColor=#006EAF;" vertex="1" parent="1">
          <mxGeometry x="1540" y="1170" width="100" height="750" as="geometry" />
        </mxCell>
        <mxCell id="ZxvYhQc5vHyB1z8I4x-5-3" value="Exception" style="shape=umlLifeline;perimeter=lifelinePerimeter;whiteSpace=wrap;html=1;container=0;dropTarget=0;collapsible=0;recursiveResize=0;outlineConnect=0;portConstraint=eastwest;newEdgeStyle={&quot;edgeStyle&quot;:&quot;elbowEdgeStyle&quot;,&quot;elbow&quot;:&quot;vertical&quot;,&quot;curved&quot;:0,&quot;rounded&quot;:0};fillColor=#1ba1e2;fontColor=#ffffff;strokeColor=#006EAF;" vertex="1" parent="1">
          <mxGeometry x="1430" y="1170" width="100" height="750" as="geometry" />
        </mxCell>
        <mxCell id="ZxvYhQc5vHyB1z8I4x-5-4" value="CallEvaluationDAO" style="shape=umlLifeline;perimeter=lifelinePerimeter;whiteSpace=wrap;html=1;container=0;dropTarget=0;collapsible=0;recursiveResize=0;outlineConnect=0;portConstraint=eastwest;newEdgeStyle={&quot;edgeStyle&quot;:&quot;elbowEdgeStyle&quot;,&quot;elbow&quot;:&quot;vertical&quot;,&quot;curved&quot;:0,&quot;rounded&quot;:0};fillColor=#1ba1e2;fontColor=#ffffff;strokeColor=#006EAF;" vertex="1" parent="1">
          <mxGeometry x="1290" y="1170" width="120" height="750" as="geometry" />
        </mxCell>
        <mxCell id="ZxvYhQc5vHyB1z8I4x-5-5" value="" style="html=1;points=[];perimeter=orthogonalPerimeter;outlineConnect=0;targetShapes=umlLifeline;portConstraint=eastwest;newEdgeStyle={&quot;edgeStyle&quot;:&quot;elbowEdgeStyle&quot;,&quot;elbow&quot;:&quot;vertical&quot;,&quot;curved&quot;:0,&quot;rounded&quot;:0};" vertex="1" parent="ZxvYhQc5vHyB1z8I4x-5-4">
          <mxGeometry x="55.5" y="440" width="10" height="20" as="geometry" />
        </mxCell>
        <mxCell id="ZxvYhQc5vHyB1z8I4x-5-6" value="findLecturerById(course.lecturerId)" style="html=1;verticalAlign=bottom;endArrow=block;edgeStyle=elbowEdgeStyle;elbow=vertical;curved=0;rounded=0;" edge="1" parent="ZxvYhQc5vHyB1z8I4x-5-4" target="ZxvYhQc5vHyB1z8I4x-5-5">
          <mxGeometry x="-0.0007" relative="1" as="geometry">
            <mxPoint x="-404.5" y="440" as="sourcePoint" />
            <Array as="points">
              <mxPoint x="10" y="440" />
              <mxPoint x="220.5" y="430" />
              <mxPoint x="435.5" y="500" />
              <mxPoint x="395.5" y="510" />
              <mxPoint x="-190.5" y="691.5" />
              <mxPoint x="-328.5" y="680.5" />
              <mxPoint x="-348.5" y="690.5" />
              <mxPoint x="-328.5" y="680.5" />
            </Array>
            <mxPoint x="480.5" y="500" as="targetPoint" />
            <mxPoint as="offset" />
          </mxGeometry>
        </mxCell>
        <mxCell id="ZxvYhQc5vHyB1z8I4x-5-7" value="lecturer" style="html=1;verticalAlign=bottom;endArrow=open;dashed=1;endSize=8;edgeStyle=elbowEdgeStyle;elbow=vertical;curved=0;rounded=0;" edge="1" parent="ZxvYhQc5vHyB1z8I4x-5-4" source="ZxvYhQc5vHyB1z8I4x-5-5">
          <mxGeometry x="0.0031" relative="1" as="geometry">
            <mxPoint x="-404.5" y="459" as="targetPoint" />
            <Array as="points">
              <mxPoint x="15.5" y="458.75" />
              <mxPoint x="45.5" y="468.75" />
              <mxPoint x="120.5" y="468.75" />
              <mxPoint x="65.5" y="468.75" />
            </Array>
            <mxPoint x="110.5" y="458.75" as="sourcePoint" />
            <mxPoint as="offset" />
          </mxGeometry>
        </mxCell>
        <mxCell id="ZxvYhQc5vHyB1z8I4x-5-8" value="User" style="shape=umlLifeline;perimeter=lifelinePerimeter;whiteSpace=wrap;html=1;container=0;dropTarget=0;collapsible=0;recursiveResize=0;outlineConnect=0;portConstraint=eastwest;newEdgeStyle={&quot;edgeStyle&quot;:&quot;elbowEdgeStyle&quot;,&quot;elbow&quot;:&quot;vertical&quot;,&quot;curved&quot;:0,&quot;rounded&quot;:0};fillColor=#1ba1e2;fontColor=#ffffff;strokeColor=#006EAF;" vertex="1" parent="1">
          <mxGeometry x="1180" y="1170" width="100" height="750" as="geometry" />
        </mxCell>
        <mxCell id="ZxvYhQc5vHyB1z8I4x-5-9" value="HttpServletRequest" style="shape=umlLifeline;perimeter=lifelinePerimeter;whiteSpace=wrap;html=1;container=0;dropTarget=0;collapsible=0;recursiveResize=0;outlineConnect=0;portConstraint=eastwest;newEdgeStyle={&quot;edgeStyle&quot;:&quot;elbowEdgeStyle&quot;,&quot;elbow&quot;:&quot;vertical&quot;,&quot;curved&quot;:0,&quot;rounded&quot;:0};fillColor=#1ba1e2;fontColor=#ffffff;strokeColor=#006EAF;" vertex="1" parent="1">
          <mxGeometry x="1050" y="1170" width="120" height="750" as="geometry" />
        </mxCell>
        <mxCell id="ZxvYhQc5vHyB1z8I4x-5-10" value="Session" style="shape=umlLifeline;perimeter=lifelinePerimeter;whiteSpace=wrap;html=1;container=0;dropTarget=0;collapsible=0;recursiveResize=0;outlineConnect=0;portConstraint=eastwest;newEdgeStyle={&quot;edgeStyle&quot;:&quot;elbowEdgeStyle&quot;,&quot;elbow&quot;:&quot;vertical&quot;,&quot;curved&quot;:0,&quot;rounded&quot;:0};fillColor=#1ba1e2;fontColor=#ffffff;strokeColor=#006EAF;" vertex="1" parent="1">
          <mxGeometry x="970" y="1170" width="60" height="810" as="geometry" />
        </mxCell>
        <mxCell id="ZxvYhQc5vHyB1z8I4x-5-11" value="ModalVerbalRecap" style="shape=umlLifeline;perimeter=lifelinePerimeter;whiteSpace=wrap;html=1;container=0;dropTarget=0;collapsible=0;recursiveResize=0;outlineConnect=0;portConstraint=eastwest;newEdgeStyle={&quot;edgeStyle&quot;:&quot;elbowEdgeStyle&quot;,&quot;elbow&quot;:&quot;vertical&quot;,&quot;curved&quot;:0,&quot;rounded&quot;:0};" vertex="1" parent="1">
          <mxGeometry x="590" y="1170" width="120" height="840" as="geometry" />
        </mxCell>
        <mxCell id="ZxvYhQc5vHyB1z8I4x-5-12" value="show(verbalId)" style="html=1;verticalAlign=bottom;startArrow=oval;endArrow=block;startSize=8;edgeStyle=elbowEdgeStyle;elbow=vertical;curved=0;rounded=0;" edge="1" parent="ZxvYhQc5vHyB1z8I4x-5-11" target="ZxvYhQc5vHyB1z8I4x-5-11">
          <mxGeometry relative="1" as="geometry">
            <mxPoint x="-30" y="70" as="sourcePoint" />
            <mxPoint x="45" y="70" as="targetPoint" />
          </mxGeometry>
        </mxCell>
        <mxCell id="ZxvYhQc5vHyB1z8I4x-5-13" value="" style="html=1;points=[];perimeter=orthogonalPerimeter;outlineConnect=0;targetShapes=umlLifeline;portConstraint=eastwest;newEdgeStyle={&quot;edgeStyle&quot;:&quot;elbowEdgeStyle&quot;,&quot;elbow&quot;:&quot;vertical&quot;,&quot;curved&quot;:0,&quot;rounded&quot;:0};" vertex="1" parent="ZxvYhQc5vHyB1z8I4x-5-11">
          <mxGeometry x="56" y="790" width="10" height="30" as="geometry" />
        </mxCell>
        <mxCell id="ZxvYhQc5vHyB1z8I4x-5-14" value="update(mapDataWithAString)" style="html=1;align=left;spacingLeft=2;endArrow=block;rounded=0;edgeStyle=orthogonalEdgeStyle;curved=0;rounded=0;" edge="1" parent="ZxvYhQc5vHyB1z8I4x-5-11" target="ZxvYhQc5vHyB1z8I4x-5-13">
          <mxGeometry relative="1" as="geometry">
            <mxPoint x="61" y="770" as="sourcePoint" />
            <Array as="points">
              <mxPoint x="91" y="800" />
            </Array>
          </mxGeometry>
        </mxCell>
        <mxCell id="ZxvYhQc5vHyB1z8I4x-5-15" value="VerbalizeStudentsMarks" style="shape=umlLifeline;perimeter=lifelinePerimeter;whiteSpace=wrap;html=1;container=0;dropTarget=0;collapsible=0;recursiveResize=0;outlineConnect=0;portConstraint=eastwest;newEdgeStyle={&quot;edgeStyle&quot;:&quot;elbowEdgeStyle&quot;,&quot;elbow&quot;:&quot;vertical&quot;,&quot;curved&quot;:0,&quot;rounded&quot;:0};fillColor=#1ba1e2;fontColor=#ffffff;strokeColor=#006EAF;" vertex="1" parent="1">
          <mxGeometry x="800" y="1170" width="160" height="850" as="geometry" />
        </mxCell>
        <mxCell id="ZxvYhQc5vHyB1z8I4x-5-16" value="" style="html=1;points=[];perimeter=orthogonalPerimeter;outlineConnect=0;targetShapes=umlLifeline;portConstraint=eastwest;newEdgeStyle={&quot;edgeStyle&quot;:&quot;elbowEdgeStyle&quot;,&quot;elbow&quot;:&quot;vertical&quot;,&quot;curved&quot;:0,&quot;rounded&quot;:0};" vertex="1" parent="ZxvYhQc5vHyB1z8I4x-5-15">
          <mxGeometry x="75" y="90" width="10" height="680" as="geometry" />
        </mxCell>
        <mxCell id="ZxvYhQc5vHyB1z8I4x-5-17" value="GET /GetVerbalData?verbalid = verbalId" style="html=1;verticalAlign=bottom;endArrow=block;edgeStyle=elbowEdgeStyle;elbow=vertical;curved=0;rounded=0;" edge="1" parent="1" target="ZxvYhQc5vHyB1z8I4x-5-16">
          <mxGeometry relative="1" as="geometry">
            <mxPoint x="650" y="1270" as="sourcePoint" />
            <Array as="points">
              <mxPoint x="750" y="1260" />
              <mxPoint x="721" y="1270" />
              <mxPoint x="661" y="1300" />
              <mxPoint x="441" y="1270" />
              <mxPoint x="456" y="1270" />
            </Array>
            <mxPoint x="826" y="1270" as="targetPoint" />
          </mxGeometry>
        </mxCell>
        <mxCell id="ZxvYhQc5vHyB1z8I4x-5-18" value="" style="html=1;points=[];perimeter=orthogonalPerimeter;outlineConnect=0;targetShapes=umlLifeline;portConstraint=eastwest;newEdgeStyle={&quot;edgeStyle&quot;:&quot;elbowEdgeStyle&quot;,&quot;elbow&quot;:&quot;vertical&quot;,&quot;curved&quot;:0,&quot;rounded&quot;:0};" vertex="1" parent="1">
          <mxGeometry x="995.5" y="1270" width="10" height="30" as="geometry" />
        </mxCell>
        <mxCell id="ZxvYhQc5vHyB1z8I4x-5-19" value="getAttribute(&quot;user&quot;)" style="html=1;verticalAlign=bottom;endArrow=block;edgeStyle=elbowEdgeStyle;elbow=vertical;curved=0;rounded=0;" edge="1" parent="1" target="ZxvYhQc5vHyB1z8I4x-5-18">
          <mxGeometry x="-0.003" width="80" relative="1" as="geometry">
            <mxPoint x="885.5" y="1270" as="sourcePoint" />
            <mxPoint x="990" y="1270" as="targetPoint" />
            <Array as="points">
              <mxPoint x="890.5" y="1270" />
            </Array>
            <mxPoint as="offset" />
          </mxGeometry>
        </mxCell>
        <mxCell id="ZxvYhQc5vHyB1z8I4x-5-20" value="user" style="html=1;verticalAlign=bottom;endArrow=open;dashed=1;endSize=8;edgeStyle=elbowEdgeStyle;elbow=vertical;curved=0;rounded=0;" edge="1" parent="1" source="ZxvYhQc5vHyB1z8I4x-5-18">
          <mxGeometry relative="1" as="geometry">
            <mxPoint x="990.5" y="1300" as="sourcePoint" />
            <mxPoint x="885.5" y="1300" as="targetPoint" />
            <Array as="points">
              <mxPoint x="950.5" y="1300" />
              <mxPoint x="970.5" y="1300" />
            </Array>
          </mxGeometry>
        </mxCell>
        <mxCell id="ZxvYhQc5vHyB1z8I4x-5-21" value="alt" style="shape=umlFrame;whiteSpace=wrap;html=1;pointerEvents=0;width=55;height=20;" vertex="1" parent="1">
          <mxGeometry x="800" y="1320" width="970" height="570" as="geometry" />
        </mxCell>
        <mxCell id="ZxvYhQc5vHyB1z8I4x-5-22" value="Try" style="text;html=1;align=center;verticalAlign=middle;whiteSpace=wrap;rounded=0;fontStyle=3;fontColor=#FF8000;" vertex="1" parent="1">
          <mxGeometry x="780.5" y="1340" width="150" height="20" as="geometry" />
        </mxCell>
        <mxCell id="ZxvYhQc5vHyB1z8I4x-5-23" value="getId()" style="html=1;verticalAlign=bottom;endArrow=block;edgeStyle=elbowEdgeStyle;elbow=vertical;curved=0;rounded=0;" edge="1" parent="1" target="ZxvYhQc5vHyB1z8I4x-5-29">
          <mxGeometry relative="1" as="geometry">
            <mxPoint x="885.5" y="1350" as="sourcePoint" />
            <Array as="points">
              <mxPoint x="1140.5" y="1350" />
              <mxPoint x="952.5" y="1360" />
              <mxPoint x="932.5" y="1370" />
              <mxPoint x="952.5" y="1360" />
            </Array>
            <mxPoint x="1037.5" y="1360" as="targetPoint" />
          </mxGeometry>
        </mxCell>
        <mxCell id="ZxvYhQc5vHyB1z8I4x-5-24" value="" style="html=1;points=[];perimeter=orthogonalPerimeter;outlineConnect=0;targetShapes=umlLifeline;portConstraint=eastwest;newEdgeStyle={&quot;edgeStyle&quot;:&quot;elbowEdgeStyle&quot;,&quot;elbow&quot;:&quot;vertical&quot;,&quot;curved&quot;:0,&quot;rounded&quot;:0};" vertex="1" parent="1">
          <mxGeometry x="1105.5" y="1440" width="10" height="30" as="geometry" />
        </mxCell>
        <mxCell id="ZxvYhQc5vHyB1z8I4x-5-25" value="(Integer) getParameter(&quot;verbalid&quot;) &lt;br&gt;&lt;b&gt;&lt;font color=&quot;#ff8000&quot;&gt;?: [THROW NumberFormatExcpetion &lt;br&gt;| NullPointerExcpetion]&lt;/font&gt;&lt;/b&gt;" style="html=1;verticalAlign=bottom;endArrow=block;edgeStyle=elbowEdgeStyle;elbow=vertical;curved=0;rounded=0;" edge="1" parent="1" target="ZxvYhQc5vHyB1z8I4x-5-24">
          <mxGeometry relative="1" as="geometry">
            <mxPoint x="885.5" y="1440" as="sourcePoint" />
            <Array as="points">
              <mxPoint x="1070.5" y="1440" />
              <mxPoint x="952.5" y="1445" />
              <mxPoint x="932.5" y="1455" />
              <mxPoint x="952.5" y="1445" />
            </Array>
            <mxPoint x="1037.5" y="1445" as="targetPoint" />
          </mxGeometry>
        </mxCell>
        <mxCell id="ZxvYhQc5vHyB1z8I4x-5-26" value="verbalId" style="html=1;verticalAlign=bottom;endArrow=open;dashed=1;endSize=8;edgeStyle=elbowEdgeStyle;elbow=vertical;curved=0;rounded=0;" edge="1" parent="1" source="ZxvYhQc5vHyB1z8I4x-5-24">
          <mxGeometry x="0.0031" relative="1" as="geometry">
            <mxPoint x="885.5" y="1470" as="targetPoint" />
            <Array as="points">
              <mxPoint x="1100.5" y="1470" />
              <mxPoint x="1145.5" y="1475" />
              <mxPoint x="1090.5" y="1475" />
            </Array>
            <mxPoint x="1157.5" y="1475" as="sourcePoint" />
            <mxPoint as="offset" />
          </mxGeometry>
        </mxCell>
        <mxCell id="ZxvYhQc5vHyB1z8I4x-5-27" value="" style="html=1;points=[];perimeter=orthogonalPerimeter;outlineConnect=0;targetShapes=umlLifeline;portConstraint=eastwest;newEdgeStyle={&quot;edgeStyle&quot;:&quot;elbowEdgeStyle&quot;,&quot;elbow&quot;:&quot;vertical&quot;,&quot;curved&quot;:0,&quot;rounded&quot;:0};direction=west;" vertex="1" parent="1">
          <mxGeometry x="1585" y="1860" width="10" height="20" as="geometry" />
        </mxCell>
        <mxCell id="ZxvYhQc5vHyB1z8I4x-5-28" value="setStatus(errorCode)" style="html=1;verticalAlign=bottom;endArrow=block;edgeStyle=elbowEdgeStyle;elbow=vertical;curved=0;rounded=0;" edge="1" parent="1" source="ZxvYhQc5vHyB1z8I4x-5-16" target="ZxvYhQc5vHyB1z8I4x-5-27">
          <mxGeometry relative="1" as="geometry">
            <mxPoint x="895" y="1860" as="sourcePoint" />
            <Array as="points">
              <mxPoint x="952" y="1860" />
              <mxPoint x="932" y="1870" />
              <mxPoint x="952" y="1860" />
            </Array>
            <mxPoint x="1037" y="1860" as="targetPoint" />
          </mxGeometry>
        </mxCell>
        <mxCell id="ZxvYhQc5vHyB1z8I4x-5-29" value="" style="html=1;points=[];perimeter=orthogonalPerimeter;outlineConnect=0;targetShapes=umlLifeline;portConstraint=eastwest;newEdgeStyle={&quot;edgeStyle&quot;:&quot;elbowEdgeStyle&quot;,&quot;elbow&quot;:&quot;vertical&quot;,&quot;curved&quot;:0,&quot;rounded&quot;:0};" vertex="1" parent="1">
          <mxGeometry x="1225.5" y="1350" width="10" height="30" as="geometry" />
        </mxCell>
        <mxCell id="ZxvYhQc5vHyB1z8I4x-5-30" value="" style="html=1;points=[];perimeter=orthogonalPerimeter;outlineConnect=0;targetShapes=umlLifeline;portConstraint=eastwest;newEdgeStyle={&quot;edgeStyle&quot;:&quot;elbowEdgeStyle&quot;,&quot;elbow&quot;:&quot;vertical&quot;,&quot;curved&quot;:0,&quot;rounded&quot;:0};" vertex="1" parent="1">
          <mxGeometry x="1345.5" y="1530" width="10" height="20" as="geometry" />
        </mxCell>
        <mxCell id="ZxvYhQc5vHyB1z8I4x-5-31" value="idUser" style="html=1;verticalAlign=bottom;endArrow=open;dashed=1;endSize=8;edgeStyle=elbowEdgeStyle;elbow=vertical;curved=0;rounded=0;" edge="1" parent="1" source="ZxvYhQc5vHyB1z8I4x-5-29">
          <mxGeometry x="0.0031" relative="1" as="geometry">
            <mxPoint x="885.5" y="1380" as="targetPoint" />
            <Array as="points">
              <mxPoint x="1180.5" y="1380" />
              <mxPoint x="1210.5" y="1390" />
              <mxPoint x="1285.5" y="1390" />
              <mxPoint x="1230.5" y="1390" />
            </Array>
            <mxPoint x="1300.5" y="1390" as="sourcePoint" />
            <mxPoint as="offset" />
          </mxGeometry>
        </mxCell>
        <mxCell id="ZxvYhQc5vHyB1z8I4x-5-32" value="" style="html=1;points=[];perimeter=orthogonalPerimeter;outlineConnect=0;targetShapes=umlLifeline;portConstraint=eastwest;newEdgeStyle={&quot;edgeStyle&quot;:&quot;elbowEdgeStyle&quot;,&quot;elbow&quot;:&quot;vertical&quot;,&quot;curved&quot;:0,&quot;rounded&quot;:0};" vertex="1" parent="1">
          <mxGeometry x="1494" y="1800" width="10" height="30" as="geometry" />
        </mxCell>
        <mxCell id="ZxvYhQc5vHyB1z8I4x-5-33" value="" style="html=1;points=[];perimeter=orthogonalPerimeter;outlineConnect=0;targetShapes=umlLifeline;portConstraint=eastwest;newEdgeStyle={&quot;edgeStyle&quot;:&quot;elbowEdgeStyle&quot;,&quot;elbow&quot;:&quot;vertical&quot;,&quot;curved&quot;:0,&quot;rounded&quot;:0};" vertex="1" parent="1">
          <mxGeometry x="1705.5" y="1500" width="10" height="20" as="geometry" />
        </mxCell>
        <mxCell id="ZxvYhQc5vHyB1z8I4x-5-34" value="" style="html=1;points=[];perimeter=orthogonalPerimeter;outlineConnect=0;targetShapes=umlLifeline;portConstraint=eastwest;newEdgeStyle={&quot;edgeStyle&quot;:&quot;elbowEdgeStyle&quot;,&quot;elbow&quot;:&quot;vertical&quot;,&quot;curved&quot;:0,&quot;rounded&quot;:0};" vertex="1" parent="1">
          <mxGeometry x="1345.5" y="1570" width="10" height="20" as="geometry" />
        </mxCell>
        <mxCell id="ZxvYhQc5vHyB1z8I4x-5-35" value="checkIfCourseOfCallIsTaughtByLecturer(callId, idUser) &lt;b&gt;&lt;font color=&quot;#ff8000&quot;&gt;?: [THROW GraduationCallDAOException]&lt;/font&gt;&lt;/b&gt;" style="html=1;verticalAlign=bottom;endArrow=block;edgeStyle=elbowEdgeStyle;elbow=vertical;curved=0;rounded=0;" edge="1" parent="1" target="ZxvYhQc5vHyB1z8I4x-5-33">
          <mxGeometry x="-0.0007" relative="1" as="geometry">
            <mxPoint x="885.5" y="1500" as="sourcePoint" />
            <Array as="points">
              <mxPoint x="1670.5" y="1500" />
              <mxPoint x="1720.5" y="1590" />
              <mxPoint x="1680.5" y="1600" />
              <mxPoint x="1094.5" y="1781.5" />
              <mxPoint x="956.5" y="1770.5" />
              <mxPoint x="936.5" y="1780.5" />
              <mxPoint x="956.5" y="1770.5" />
            </Array>
            <mxPoint x="1399.5" y="1781.5" as="targetPoint" />
            <mxPoint as="offset" />
          </mxGeometry>
        </mxCell>
        <mxCell id="ZxvYhQc5vHyB1z8I4x-5-36" value="findCourseById(call.courseId)" style="html=1;verticalAlign=bottom;endArrow=block;edgeStyle=elbowEdgeStyle;elbow=vertical;curved=0;rounded=0;" edge="1" parent="1" target="ZxvYhQc5vHyB1z8I4x-5-34">
          <mxGeometry x="-0.0007" relative="1" as="geometry">
            <mxPoint x="885.5" y="1570" as="sourcePoint" />
            <Array as="points">
              <mxPoint x="1300" y="1570" />
              <mxPoint x="1510.5" y="1560" />
              <mxPoint x="1725.5" y="1630" />
              <mxPoint x="1685.5" y="1640" />
              <mxPoint x="1099.5" y="1821.5" />
              <mxPoint x="961.5" y="1810.5" />
              <mxPoint x="941.5" y="1820.5" />
              <mxPoint x="961.5" y="1810.5" />
            </Array>
            <mxPoint x="1770.5" y="1630" as="targetPoint" />
            <mxPoint as="offset" />
          </mxGeometry>
        </mxCell>
        <mxCell id="ZxvYhQc5vHyB1z8I4x-5-37" value="findGraduationCallById(callId)" style="html=1;verticalAlign=bottom;endArrow=block;edgeStyle=elbowEdgeStyle;elbow=vertical;curved=0;rounded=0;" edge="1" parent="1" target="ZxvYhQc5vHyB1z8I4x-5-30">
          <mxGeometry relative="1" as="geometry">
            <mxPoint x="885.5" y="1530" as="sourcePoint" />
            <Array as="points">
              <mxPoint x="1350.5" y="1530" />
              <mxPoint x="1210.5" y="1660" />
              <mxPoint x="962.5" y="1670" />
              <mxPoint x="942.5" y="1680" />
              <mxPoint x="962.5" y="1670" />
            </Array>
            <mxPoint x="1297.5" y="1670" as="targetPoint" />
          </mxGeometry>
        </mxCell>
        <mxCell id="ZxvYhQc5vHyB1z8I4x-5-38" value="" style="line;strokeWidth=3;align=left;verticalAlign=middle;spacingTop=-1;spacingLeft=3;spacingRight=3;rotatable=0;labelPosition=right;points=[];portConstraint=eastwest;dashed=1;strokeColor=#80FF00;" vertex="1" parent="1">
          <mxGeometry x="780" y="1730" width="1020" height="8" as="geometry" />
        </mxCell>
        <mxCell id="ZxvYhQc5vHyB1z8I4x-5-39" value="getMessage()" style="html=1;verticalAlign=bottom;endArrow=block;edgeStyle=elbowEdgeStyle;elbow=vertical;curved=0;rounded=0;" edge="1" parent="1" source="ZxvYhQc5vHyB1z8I4x-5-16" target="ZxvYhQc5vHyB1z8I4x-5-32">
          <mxGeometry relative="1" as="geometry">
            <mxPoint x="895" y="1800" as="sourcePoint" />
            <Array as="points">
              <mxPoint x="1360" y="1800" />
              <mxPoint x="1330" y="1810" />
              <mxPoint x="1110" y="1821" />
              <mxPoint x="972" y="1810" />
              <mxPoint x="952" y="1820" />
              <mxPoint x="972" y="1810" />
            </Array>
            <mxPoint x="1415" y="1821" as="targetPoint" />
          </mxGeometry>
        </mxCell>
        <mxCell id="ZxvYhQc5vHyB1z8I4x-5-40" value="error message" style="html=1;verticalAlign=bottom;endArrow=open;dashed=1;endSize=8;edgeStyle=elbowEdgeStyle;elbow=vertical;curved=0;rounded=0;" edge="1" parent="1" source="ZxvYhQc5vHyB1z8I4x-5-32" target="ZxvYhQc5vHyB1z8I4x-5-16">
          <mxGeometry x="0.0031" relative="1" as="geometry">
            <mxPoint x="900" y="1830" as="targetPoint" />
            <Array as="points">
              <mxPoint x="1202" y="1830" />
              <mxPoint x="1407" y="1819" />
              <mxPoint x="1352" y="1819" />
            </Array>
            <mxPoint x="1517" y="1830" as="sourcePoint" />
            <mxPoint as="offset" />
          </mxGeometry>
        </mxCell>
        <mxCell id="ZxvYhQc5vHyB1z8I4x-5-41" value="Catch(SQLException | &lt;b style=&quot;color: rgb(240, 240, 240); font-size: 11px; font-style: normal;&quot;&gt;&lt;font color=&quot;#ff8000&quot;&gt;NumberFormatExcpetion | NullPointerExcpetion | GraduationCallDAOException | CallEvaluationDAOException&lt;/font&gt;&lt;/b&gt;)" style="text;html=1;align=center;verticalAlign=middle;whiteSpace=wrap;rounded=0;fontStyle=3;fontColor=#FF8000;" vertex="1" parent="1">
          <mxGeometry x="820" y="1759.5" width="330" height="20" as="geometry" />
        </mxCell>
        <mxCell id="ZxvYhQc5vHyB1z8I4x-5-42" value="course" style="html=1;verticalAlign=bottom;endArrow=open;dashed=1;endSize=8;edgeStyle=elbowEdgeStyle;elbow=vertical;curved=0;rounded=0;" edge="1" parent="1" source="ZxvYhQc5vHyB1z8I4x-5-34">
          <mxGeometry x="0.0031" relative="1" as="geometry">
            <mxPoint x="885.5" y="1589" as="targetPoint" />
            <Array as="points">
              <mxPoint x="1305.5" y="1588.75" />
              <mxPoint x="1335.5" y="1598.75" />
              <mxPoint x="1410.5" y="1598.75" />
              <mxPoint x="1355.5" y="1598.75" />
            </Array>
            <mxPoint x="1400.5" y="1588.75" as="sourcePoint" />
            <mxPoint as="offset" />
          </mxGeometry>
        </mxCell>
        <mxCell id="ZxvYhQc5vHyB1z8I4x-5-43" value="mapDataWithAString" style="html=1;verticalAlign=bottom;endArrow=open;dashed=1;endSize=8;edgeStyle=elbowEdgeStyle;elbow=vertical;curved=0;rounded=0;" edge="1" parent="1" target="ZxvYhQc5vHyB1z8I4x-5-11">
          <mxGeometry relative="1" as="geometry">
            <mxPoint x="871" y="1930" as="sourcePoint" />
            <mxPoint x="690" y="1930" as="targetPoint" />
            <Array as="points">
              <mxPoint x="821" y="1930" />
            </Array>
          </mxGeometry>
        </mxCell>
        <mxCell id="ZxvYhQc5vHyB1z8I4x-5-44" value="call" style="html=1;verticalAlign=bottom;endArrow=open;dashed=1;endSize=8;edgeStyle=elbowEdgeStyle;elbow=vertical;curved=0;rounded=0;" edge="1" parent="1" source="ZxvYhQc5vHyB1z8I4x-5-30" target="ZxvYhQc5vHyB1z8I4x-5-16">
          <mxGeometry x="0.0031" relative="1" as="geometry">
            <mxPoint x="880.25" y="1550.25" as="targetPoint" />
            <Array as="points">
              <mxPoint x="1300.25" y="1550" />
              <mxPoint x="1330.25" y="1560" />
              <mxPoint x="1405.25" y="1560" />
              <mxPoint x="1350.25" y="1560" />
            </Array>
            <mxPoint x="1340.75" y="1550.25" as="sourcePoint" />
            <mxPoint as="offset" />
          </mxGeometry>
        </mxCell>
        <mxCell id="ZxvYhQc5vHyB1z8I4x-5-45" value="" style="html=1;points=[];perimeter=orthogonalPerimeter;outlineConnect=0;targetShapes=umlLifeline;portConstraint=eastwest;newEdgeStyle={&quot;edgeStyle&quot;:&quot;elbowEdgeStyle&quot;,&quot;elbow&quot;:&quot;vertical&quot;,&quot;curved&quot;:0,&quot;rounded&quot;:0};" vertex="1" parent="1">
          <mxGeometry x="1345.5" y="1650" width="10" height="20" as="geometry" />
        </mxCell>
        <mxCell id="ZxvYhQc5vHyB1z8I4x-5-46" value="findAllStudentsInVerbalById(verbalId)" style="html=1;verticalAlign=bottom;endArrow=block;edgeStyle=elbowEdgeStyle;elbow=vertical;curved=0;rounded=0;" edge="1" parent="1" target="ZxvYhQc5vHyB1z8I4x-5-45">
          <mxGeometry x="-0.0007" relative="1" as="geometry">
            <mxPoint x="885.5" y="1650" as="sourcePoint" />
            <Array as="points">
              <mxPoint x="1300" y="1650" />
              <mxPoint x="1510.5" y="1640" />
              <mxPoint x="1725.5" y="1710" />
              <mxPoint x="1685.5" y="1720" />
              <mxPoint x="1099.5" y="1901.5" />
              <mxPoint x="961.5" y="1890.5" />
              <mxPoint x="941.5" y="1900.5" />
              <mxPoint x="961.5" y="1890.5" />
            </Array>
            <mxPoint x="1770.5" y="1710" as="targetPoint" />
            <mxPoint as="offset" />
          </mxGeometry>
        </mxCell>
        <mxCell id="ZxvYhQc5vHyB1z8I4x-5-47" value="course" style="html=1;verticalAlign=bottom;endArrow=open;dashed=1;endSize=8;edgeStyle=elbowEdgeStyle;elbow=vertical;curved=0;rounded=0;" edge="1" parent="1" source="ZxvYhQc5vHyB1z8I4x-5-45">
          <mxGeometry x="0.0031" relative="1" as="geometry">
            <mxPoint x="885.5" y="1669" as="targetPoint" />
            <Array as="points">
              <mxPoint x="1305.5" y="1668.75" />
              <mxPoint x="1335.5" y="1678.75" />
              <mxPoint x="1410.5" y="1678.75" />
              <mxPoint x="1355.5" y="1678.75" />
            </Array>
            <mxPoint x="1400.5" y="1668.75" as="sourcePoint" />
            <mxPoint as="offset" />
          </mxGeometry>
        </mxCell>
        <mxCell id="ZxvYhQc5vHyB1z8I4x-5-48" value="" style="html=1;points=[];perimeter=orthogonalPerimeter;outlineConnect=0;targetShapes=umlLifeline;portConstraint=eastwest;newEdgeStyle={&quot;edgeStyle&quot;:&quot;elbowEdgeStyle&quot;,&quot;elbow&quot;:&quot;vertical&quot;,&quot;curved&quot;:0,&quot;rounded&quot;:0};" vertex="1" parent="1">
          <mxGeometry x="1345.5" y="1690" width="10" height="20" as="geometry" />
        </mxCell>
        <mxCell id="ZxvYhQc5vHyB1z8I4x-5-49" value="findVerbalById(verbalId)" style="html=1;verticalAlign=bottom;endArrow=block;edgeStyle=elbowEdgeStyle;elbow=vertical;curved=0;rounded=0;" edge="1" parent="1" target="ZxvYhQc5vHyB1z8I4x-5-48">
          <mxGeometry x="-0.0007" relative="1" as="geometry">
            <mxPoint x="885.5" y="1690" as="sourcePoint" />
            <Array as="points">
              <mxPoint x="1300" y="1690" />
              <mxPoint x="1510.5" y="1680" />
              <mxPoint x="1725.5" y="1750" />
              <mxPoint x="1685.5" y="1760" />
              <mxPoint x="1099.5" y="1941.5" />
              <mxPoint x="961.5" y="1930.5" />
              <mxPoint x="941.5" y="1940.5" />
              <mxPoint x="961.5" y="1930.5" />
            </Array>
            <mxPoint x="1770.5" y="1750" as="targetPoint" />
            <mxPoint as="offset" />
          </mxGeometry>
        </mxCell>
        <mxCell id="ZxvYhQc5vHyB1z8I4x-5-50" value="verbal" style="html=1;verticalAlign=bottom;endArrow=open;dashed=1;endSize=8;edgeStyle=elbowEdgeStyle;elbow=vertical;curved=0;rounded=0;" edge="1" parent="1" source="ZxvYhQc5vHyB1z8I4x-5-48">
          <mxGeometry x="0.0031" relative="1" as="geometry">
            <mxPoint x="885.5" y="1709" as="targetPoint" />
            <Array as="points">
              <mxPoint x="1305.5" y="1708.75" />
              <mxPoint x="1335.5" y="1718.75" />
              <mxPoint x="1410.5" y="1718.75" />
              <mxPoint x="1355.5" y="1718.75" />
            </Array>
            <mxPoint x="1400.5" y="1708.75" as="sourcePoint" />
            <mxPoint as="offset" />
          </mxGeometry>
        </mxCell>
      </root>
    </mxGraphModel>
  </diagram>
</mxfile>
